<?xml version="1.0" standalone="no"?>
<!DOCTYPE svg PUBLIC "-//W3C//DTD SVG 20010904//EN"
 "http://www.w3.org/TR/2001/REC-SVG-20010904/DTD/svg10.dtd">
<svg version="1.0" xmlns="http://www.w3.org/2000/svg"
 width="700.000000pt" height="700.000000pt" viewBox="0 0 700.000000 700.000000"
 preserveAspectRatio="xMidYMid meet">
<metadata>
Created by potrace 1.11, written by Peter Selinger 2001-2013
</metadata>
<g transform="translate(0.000000,700.000000) scale(0.100000,-0.100000)"
fill="#000000" stroke="none">
<path d="M3130 6984 c-632 -67 -1221 -299 -1727 -678 -700 -525 -1178 -1285
-1342 -2136 -49 -254 -56 -330 -56 -670 0 -347 7 -418 61 -695 92 -462 289
-921 567 -1317 226 -322 528 -626 841 -845 478 -336 985 -535 1577 -618 153
-22 580 -31 746 -16 454 41 872 159 1273 360 685 344 1226 888 1565 1576 200
404 304 761 351 1207 22 209 15 633 -15 828 -81 547 -263 1024 -554 1460 -586
877 -1513 1436 -2559 1545 -180 18 -552 18 -728 -1z m2250 -1875 c74 -34 120
-76 156 -141 l29 -53 0 -1210 0 -1210 -24 -49 c-31 -63 -84 -116 -147 -147
-49 -24 -51 -24 -411 -27 l-363 -3 0 -474 c0 -261 -3 -475 -7 -475 -5 0 -275
214 -602 475 l-593 475 -882 2 -881 3 -49 24 c-63 31 -116 84 -147 147 l-24
49 -3 1199 -2 1199 24 52 c44 98 109 152 216 181 35 10 435 12 1850 11 l1805
-2 55 -26z"/>
<path d="M1700 5029 c-61 -12 -118 -55 -147 -108 l-23 -44 0 -1169 c0 -1280
-3 -1206 58 -1272 15 -16 45 -37 67 -47 38 -18 85 -19 920 -19 l880 0 525
-420 525 -420 3 420 2 420 398 0 c362 0 400 2 437 19 50 22 101 79 115 128 8
27 10 385 8 1210 l-3 1171 -30 43 c-18 26 -50 53 -80 68 l-49 26 -1781 1
c-1002 1 -1800 -2 -1825 -7z m748 -869 c45 -5 102 -18 127 -29 l44 -20 -18
-53 c-10 -29 -23 -52 -27 -51 -5 2 -34 12 -64 23 -140 50 -260 1 -260 -105 0
-61 29 -91 129 -137 146 -67 154 -72 201 -118 55 -54 76 -113 67 -197 -16
-154 -157 -243 -367 -230 -85 5 -200 38 -200 58 0 21 23 100 30 104 4 3 22 -2
40 -11 168 -84 350 -35 350 94 0 72 -46 118 -165 167 -95 39 -172 90 -203 137
-83 126 6 321 167 364 58 16 51 16 149 4z m939 -12 c42 -12 127 -89 143 -128
7 -16 15 -30 19 -29 3 0 24 24 46 52 59 76 149 120 242 119 138 0 226 -66 278
-207 16 -44 19 -90 23 -372 l4 -323 -75 0 -75 0 -5 303 c-4 331 -7 350 -64
417 -71 82 -194 78 -280 -10 -58 -60 -63 -91 -63 -417 l0 -293 -74 0 -75 0 -3
313 -3 312 -26 50 c-40 78 -113 116 -193 101 -57 -11 -127 -65 -156 -121 -25
-49 -25 -50 -28 -352 l-3 -303 -74 0 -75 0 0 379 c0 208 -3 406 -6 440 l-7 61
72 0 71 0 0 -70 c0 -40 4 -70 10 -70 6 0 10 4 10 9 0 4 18 29 40 54 79 89 205
122 327 85z m1441 -10 c34 -11 62 -25 62 -32 0 -7 -7 -33 -16 -58 l-15 -46
-47 20 c-112 50 -241 28 -276 -47 -39 -81 4 -142 144 -199 115 -48 177 -90
211 -143 81 -128 22 -300 -123 -363 -99 -43 -266 -38 -374 10 l-44 19 15 43
c9 24 17 48 20 55 2 8 22 4 64 -13 109 -44 223 -42 284 7 59 46 58 151 -2 202
-16 13 -74 43 -129 66 -170 72 -227 140 -220 261 6 115 81 205 195 236 61 16
168 9 251 -18z"/>
</g>
</svg>
